<?xml version="1.0" encoding="UTF-8"?>
<svg width="29px" height="29px" viewBox="0 0 29 29" version="1.1" xmlns="http://www.w3.org/2000/svg" xmlns:xlink="http://www.w3.org/1999/xlink">
    <title>Shape</title>
    <g id="Page-1" stroke="none" stroke-width="1" fill="none" fill-rule="evenodd">
        <g id="Desktop---Buscador-tienda---Búsqueda-Copy" transform="translate(-21.000000, -24.000000)" fill="#000">
            <g id="cabecera" transform="translate(20.532258, 19.000000)">
                <g id="noun_Maps_3743338" transform="translate(0.000000, 5.000000)">
                    <path d="M22.7754342,7.99853462 C22.7754342,11.4940385 17.8865919,18.9177038 15.8459958,21.8641038 C15.4159035,22.48515 14.5195804,22.48515 14.0894881,21.8641038 C12.0488919,18.9177038 7.16004963,11.4940385 7.16004963,7.99853462 C7.16004963,3.581065 10.655665,0 14.9677419,0 C19.2798189,0 22.7754342,3.581065 22.7754342,7.99853462 Z M14.9677419,5.73676885 C13.7723842,5.73676885 12.7369727,6.75185808 12.7369727,8.08743077 C12.7369727,9.42299231 13.7723842,10.4381038 14.9677419,10.4381038 C16.1630996,10.4381038 17.1985112,9.42299231 17.1985112,8.08743077 C17.1985112,6.75185808 16.1630996,5.73676885 14.9677419,5.73676885 Z M10.5062035,8.08743077 C10.5062035,5.59450154 12.4670496,3.50599962 14.9677419,3.50599962 C17.4684342,3.50599962 19.4292804,5.59450154 19.4292804,8.08743077 C19.4292804,10.5803154 17.4684342,12.6688731 14.9677419,12.6688731 C12.4670496,12.6688731 10.5062035,10.5803154 10.5062035,8.08743077 Z M2.69851117,22.3076923 C2.69851117,21.8484885 2.96721847,21.2568885 3.79912809,20.5955769 C4.62276155,19.9407346 5.87272847,19.3277192 7.48029886,18.8458731 L6.8398004,16.7090192 C5.06983001,17.2394962 3.5313354,17.9585846 2.41089809,18.8493308 C1.29872578,19.7334962 0.467741935,20.9009692 0.467741935,22.3076923 C0.467741935,23.4662423 1.03598578,24.4689731 1.85220194,25.2730538 C2.66448078,26.0732308 3.78265386,26.7425731 5.07439194,27.2807462 C7.66275347,28.3592115 11.1612689,29 14.9677419,29 C18.774215,29 22.2727304,28.3592115 24.8610919,27.2807462 C26.1528189,26.7425731 27.2709919,26.0732308 28.0833266,25.2730538 C28.8994535,24.4689731 29.4677419,23.4662423 29.4677419,22.3076923 C29.4677419,20.9009692 28.6367804,19.7334962 27.5246304,18.8493308 C26.404115,17.9585846 24.865665,17.2394962 23.0956612,16.7090192 L22.4552073,18.8458731 C24.0626996,19.3277192 25.3127112,19.9407346 26.1363112,20.5955769 C26.9682766,21.2568885 27.2369727,21.8484885 27.2369727,22.3076923 C27.2369727,22.6891538 27.0561689,23.1534885 26.5177727,23.6838538 C25.9754727,24.2181231 25.1334689,24.7506077 24.0031381,25.2216346 C21.7471612,26.1615692 18.5533689,26.7692308 14.9677419,26.7692308 C11.382115,26.7692308 8.1883004,26.1615692 5.93237924,25.2216346 C4.80198155,24.7506077 3.96002232,24.2181231 3.41771117,23.6838538 C2.87932617,23.1534885 2.69851117,22.6891538 2.69851117,22.3076923 Z" id="Shape"></path>
                </g>
            </g>
        </g>
    </g>
</svg>
