<?xml version="1.0" encoding="UTF-8"?>
<svg width="22px" height="20px" viewBox="0 0 22 20" version="1.1" xmlns="http://www.w3.org/2000/svg" xmlns:xlink="http://www.w3.org/1999/xlink">
    <title>noun_GPS_2222974</title>
    <g id="Page-1" stroke="none" stroke-width="1" fill="none" fill-rule="evenodd">
        <g id="Desktop---Buscador-tienda---Búsqueda-Copy" transform="translate(-23.000000, -140.000000)" fill="#005c1f" fill-rule="nonzero">
            <g id="cabecera" transform="translate(20.532258, 19.000000)">
                <g id="noun_GPS_2222974" transform="translate(3.467742, 121.000000)">
                    <path d="M17.0855978,9.9779212 C17.0855978,10.1753567 17.077106,10.3749151 17.0622452,10.5723505 C17.0558764,10.6657609 17.0452615,10.7570482 17.0346467,10.8504586 C17.0325238,10.8695652 17.0155401,10.990574 17.0261549,10.9247622 C17.017663,10.9820822 17.0091712,11.0394022 17.0006793,11.0967221 C16.9412364,11.4661175 16.852072,11.829144 16.7374321,12.1836787 C16.6779891,12.3641304 16.6121773,12.5403363 16.5421196,12.7144192 C16.5378736,12.725034 16.518767,12.7717391 16.5421196,12.7165421 C16.5357507,12.7335258 16.5272588,12.7505095 16.518767,12.7674932 C16.4996603,12.8099524 16.4805537,12.8524117 16.461447,12.8969939 C16.4232337,12.9819124 16.3807745,13.0668308 16.3404382,13.1496264 C16.1727242,13.4829314 15.9795346,13.8013757 15.7629925,14.1049592 C15.7141644,14.172894 15.6653363,14.2408288 15.6143852,14.3066406 C15.6504755,14.2578125 15.6143852,14.3066406 15.6037704,14.3193784 C15.5889096,14.3384851 15.5740489,14.3554688 15.5613111,14.3745754 C15.5315897,14.4106658 15.5039912,14.4467561 15.4742697,14.4828465 C15.3553838,14.6250849 15.232252,14.7630774 15.1027514,14.896824 C14.9732507,15.0305707 14.8395041,15.1579484 14.7015115,15.2810802 C14.6399457,15.3362772 14.5762568,15.3914742 14.5125679,15.4445482 C14.4764776,15.4742697 14.4403872,15.5039912 14.4042969,15.5315897 C14.3873132,15.5464504 14.287534,15.622877 14.3363621,15.5846637 C14.0391474,15.8096977 13.729195,16.013502 13.4022588,16.1939538 C13.2472826,16.2788723 13.0880605,16.3595448 12.9267154,16.4338485 C12.8842561,16.4529552 12.8417969,16.4720618 12.7972147,16.4911685 C12.780231,16.4996603 12.7632473,16.5060292 12.7462636,16.5145211 C12.8120754,16.4869226 12.725034,16.5230129 12.7186651,16.5251359 C12.6316236,16.5612262 12.5424592,16.5951936 12.4554178,16.627038 C12.1051291,16.7544158 11.7463485,16.854195 11.383322,16.9284986 C11.2877887,16.9476053 11.1943784,16.964589 11.0988451,16.9794497 C11.0563859,16.9858186 11.0118037,16.9921875 10.9693444,16.9985564 C10.9120245,17.0070482 11.0457711,16.9900645 10.9523607,17.0006793 C10.9226393,17.0049253 10.8950408,17.0070482 10.8653193,17.0112942 C10.6700068,17.0346467 10.4725713,17.0495075 10.2772588,17.0558764 C9.89087976,17.0686141 9.50450068,17.0537534 9.12236753,17.0091712 C9.10326087,17.0070482 9.08415421,17.0049253 9.06504755,17.0028023 C8.96951427,16.9900645 9.12873641,17.0134171 9.03320312,16.9985564 C8.99074389,16.9921875 8.94616168,16.9858186 8.90370245,16.9794497 C8.80392323,16.962466 8.70414402,16.9454823 8.60436481,16.9242527 C8.42603601,16.8881624 8.24983016,16.8457031 8.07362432,16.794752 C7.89104959,16.743801 7.71059783,16.684358 7.53226902,16.6185462 C7.44735054,16.5867018 7.36455503,16.5548573 7.28175951,16.5208899 C7.26689878,16.5145211 7.2095788,16.4911685 7.26689878,16.5145211 C7.24991508,16.5081522 7.23293139,16.4996603 7.21594769,16.4911685 C7.1649966,16.4678159 7.11192255,16.4465863 7.06097147,16.4211107 C6.7297894,16.2682575 6.41134511,16.0899287 6.10776155,15.8903702 C6.03345788,15.8415421 5.96127717,15.792714 5.88909647,15.7417629 C5.85512908,15.7184103 5.82116168,15.6929348 5.78719429,15.6674592 C5.76808764,15.6547215 5.74898098,15.6398607 5.73199728,15.625 C5.72138247,15.6165082 5.64283288,15.5570652 5.69590693,15.5995245 C5.55579144,15.4912534 5.42204484,15.3787364 5.2904212,15.2598505 C5.01443614,15.011464 4.75755774,14.7439708 4.52190897,14.4573709 C4.49855639,14.4297724 4.4752038,14.400051 4.45185122,14.3703295 C4.43486753,14.3490999 4.41788383,14.3257473 4.40090014,14.3045177 C4.39453125,14.2960258 4.36480978,14.2556895 4.39877717,14.3023947 C4.34358016,14.228091 4.28838315,14.1537874 4.23318614,14.0773607 C4.12491508,13.9245075 4.02513587,13.7695313 3.92747962,13.6103091 C3.83194633,13.451087 3.74065897,13.2854959 3.65786345,13.1199049 C3.61965014,13.0434783 3.58355978,12.9691746 3.54746943,12.892748 C3.52836277,12.8502887 3.50925611,12.8078295 3.49014946,12.7632473 C3.48165761,12.7462636 3.47528872,12.7292799 3.46679687,12.7122962 C3.49227242,12.7738621 3.46042799,12.6974355 3.45618207,12.6846977 C3.31182065,12.332286 3.19718071,11.9713825 3.1080163,11.6019871 C3.06555707,11.4236583 3.02946671,11.2432065 3.00186821,11.0627548 C2.99337636,11.0139266 2.98700747,10.9672215 2.98063859,10.9183933 C2.98913043,10.9820822 2.98063859,10.9183933 2.97851562,10.9014096 C2.97639266,10.8780571 2.97214674,10.8525815 2.97002378,10.8292289 C2.95940897,10.7315727 2.94879416,10.6339164 2.94242527,10.5362602 C2.9127038,10.1498811 2.91482677,9.76350204 2.94454823,9.37712296 C2.95304008,9.27946671 2.96153193,9.18181046 2.9742697,9.08415421 C2.97639266,9.06504755 2.97851562,9.0459409 2.98063859,9.02683424 C2.9912534,8.93342391 2.9742697,9.06717052 2.98276155,9.00985054 C2.9912534,8.95677649 2.99762228,8.90370245 3.00611413,8.8506284 C3.03795856,8.66168478 3.07617187,8.47274117 3.12075408,8.28592052 C3.20991848,7.92501698 3.32668139,7.57472826 3.46467391,7.23293139 C3.48802649,7.17561141 3.4710428,7.22019361 3.46467391,7.23080842 C3.47528872,7.20533288 3.48590353,7.17985734 3.4986413,7.15225883 C3.515625,7.11404552 3.5326087,7.0758322 3.55171535,7.03761889 C3.59205163,6.94845448 3.63663383,6.85929008 3.68121603,6.77224864 C3.76188859,6.61514946 3.84893003,6.46017323 3.94021739,6.30731997 C4.03575068,6.14809783 4.13977582,5.9931216 4.24592391,5.84026834 C4.27352242,5.80205503 4.30112092,5.76384171 4.32871943,5.72775136 C4.33933424,5.71289063 4.34994905,5.69802989 4.36268682,5.68316916 C4.36056386,5.68529212 4.41576087,5.61311141 4.38816236,5.64920177 C4.36056386,5.68529212 4.41576087,5.61311141 4.41363791,5.61523438 C4.42425272,5.60037364 4.43699049,5.58551291 4.4476053,5.57065217 C4.48157269,5.52819293 4.51766304,5.48361073 4.5537534,5.44115149 C4.78515625,5.16516644 5.03778872,4.90404212 5.30740489,4.66414742 C5.37321671,4.60470448 5.43902853,4.54738451 5.50696332,4.4921875 C5.53880774,4.46458899 5.57065217,4.43911345 5.60461957,4.41363791 C5.62372622,4.39877717 5.64070992,4.38391644 5.65981658,4.37117867 C5.67043139,4.36268682 5.6810462,4.35419497 5.69166101,4.34570313 C5.6640625,4.36693274 5.6640625,4.36693274 5.69378397,4.34358016 C5.83602242,4.23743207 5.97826087,4.13552989 6.12686821,4.03787364 C6.43894361,3.83406929 6.76800272,3.65361753 7.10767663,3.4986413 C7.14588995,3.48165761 7.18410326,3.46467391 7.22443954,3.44769022 C7.23930027,3.44132133 7.29662024,3.41796875 7.23930027,3.44132133 C7.25628397,3.43495245 7.27326766,3.4264606 7.29237432,3.42009171 C7.37941576,3.38400136 7.46858016,3.35003397 7.5556216,3.31818954 C7.73395041,3.25237772 7.91440217,3.19505774 8.0969769,3.14410666 C8.28167459,3.09315557 8.46849524,3.04857337 8.6553159,3.01248302 C8.74023437,2.99549932 8.82727582,2.98063859 8.91219429,2.96790082 C8.96102242,2.95940897 9.00772758,2.95304008 9.05655571,2.9466712 C8.99498981,2.95516304 9.0459409,2.94879416 9.05867867,2.9466712 C9.08840014,2.94242527 9.11599864,2.94030231 9.14572011,2.93605639 C9.53846807,2.89147418 9.93546196,2.87661345 10.3303329,2.89359715 C10.5171535,2.90208899 10.7039742,2.91694973 10.8886719,2.93817935 C10.9183933,2.94242527 10.9459918,2.94454823 10.9757133,2.94879416 C10.9629755,2.9466712 10.9141474,2.94030231 10.9778363,2.94879416 C11.0266644,2.95516304 11.0733696,2.96365489 11.1221977,2.97002378 C11.217731,2.98488451 11.3132643,3.00399117 11.4066746,3.02309783 C11.771824,3.09740149 12.1284817,3.19930367 12.4787704,3.32880435 C12.5679348,3.36064878 12.6549762,3.39673913 12.7420177,3.43070652 C12.7993376,3.4540591 12.7547554,3.43707541 12.7441406,3.43070652 C12.7653702,3.43919837 12.7865999,3.44981318 12.8078295,3.45830503 C12.8545346,3.47953465 12.9012398,3.50076427 12.9500679,3.52199389 C13.1199049,3.60054348 13.2876189,3.68546196 13.451087,3.77674932 C13.6060632,3.86379076 13.7567935,3.95507813 13.9054008,4.05273438 C13.9839504,4.10368546 14.060377,4.15675951 14.1346807,4.20983356 C14.1686481,4.23318614 14.2026155,4.25866168 14.2365829,4.28413723 C14.2556895,4.296875 14.2747962,4.31173573 14.2917799,4.32659647 C14.2960258,4.33084239 14.3703295,4.3860394 14.3151325,4.34358016 C14.6017323,4.56436821 14.8692255,4.80850883 15.1197351,5.06963315 C15.2471128,5.20337976 15.3723675,5.34137228 15.4891304,5.4857337 C15.5188519,5.52182405 15.5485734,5.5579144 15.5761719,5.59400476 C15.5867867,5.60886549 15.5995245,5.62372622 15.6101393,5.63858696 C15.6653363,5.7086447 15.5867867,5.60886549 15.6207541,5.65132473 C15.680197,5.72987432 15.737517,5.80842391 15.792714,5.88697351 C16.0007643,6.18418818 16.1875849,6.49838655 16.351053,6.82319973 C16.3913893,6.90387228 16.4296026,6.98242188 16.4656929,7.06521739 C16.4826766,7.10343071 16.4996603,7.14164402 16.516644,7.1819803 C16.516644,7.17985734 16.5527344,7.26477582 16.5336277,7.22231658 C16.5208899,7.19047215 16.5569803,7.27963655 16.5612262,7.2881284 C16.631284,7.46008832 16.6928499,7.63204823 16.7480469,7.80825408 C16.8626868,8.16915761 16.9497283,8.53855299 17.0091712,8.91219429 C17.0112942,8.93130095 17.0155401,8.95040761 17.017663,8.96951427 C17.017663,8.9673913 17.0304008,9.06080163 17.0240319,9.01409647 C17.017663,8.9673913 17.0304008,9.06080163 17.0304008,9.05867867 C17.0325238,9.07778533 17.0346467,9.09689198 17.0367697,9.11599864 C17.0473845,9.21365489 17.0579993,9.31131114 17.0643682,9.40896739 C17.0792289,9.60003397 17.0855978,9.78897758 17.0855978,9.9779212 C17.0855978,10.1435122 17.2320822,10.3048573 17.4040421,10.2963655 C17.576002,10.2878736 17.7224864,10.15625 17.7224864,9.9779212 C17.7203635,8.39206861 17.2299592,6.8189538 16.3085937,5.52606997 C15.3957201,4.24592391 14.11982,3.26511549 12.6443614,2.72163723 C11.1349355,2.1654212 9.44293478,2.10810122 7.89741848,2.54543139 C6.40285326,2.96790082 5.04203465,3.85317595 4.05485734,5.05264946 C3.03795856,6.28821332 2.42442255,7.80400815 2.30129076,9.39835258 C2.17815897,10.9884511 2.56453804,12.612517 3.39249321,13.9754586 C4.19284986,15.291695 5.39020041,16.3701596 6.79772418,17.0049253 C8.28804348,17.6779042 9.95669158,17.8668478 11.5616508,17.5420346 C13.0859375,17.2342052 14.506199,16.4423404 15.5804178,15.3192935 C16.6610054,14.1877548 17.3955503,12.7292799 17.631199,11.1795177 C17.690642,10.7804008 17.7246094,10.381284 17.7267323,9.9779212 C17.7267323,9.81233016 17.580248,9.65098505 17.408288,9.6594769 C17.2320822,9.66796875 17.0855978,9.79959239 17.0855978,9.9779212 Z" id="Path" stroke="#005c1f" stroke-width="0.3"></path>
                    <path d="M11.941661,9.98004416 C11.941661,10.0394871 11.939538,10.09893 11.9352921,10.158373 C11.9331692,10.1880944 11.9289232,10.2178159 11.9268003,10.2454144 C11.9352921,10.1732337 11.9225543,10.266644 11.9225543,10.2751359 C11.9034477,10.3876529 11.8758492,10.5001698 11.8397588,10.6084409 C11.8248981,10.6530231 11.8079144,10.6976053 11.7909307,10.7421875 C11.8164063,10.6763757 11.7824389,10.7612942 11.7781929,10.769786 C11.7654552,10.7952615 11.7548404,10.8207371 11.7421026,10.8462126 C11.6911515,10.9459918 11.6338315,11.0415251 11.5680197,11.1328125 C11.5637738,11.1391814 11.5064538,11.2134851 11.551036,11.158288 C11.5404212,11.1731488 11.5276834,11.1880095 11.5170686,11.2007473 C11.4809783,11.2432065 11.4448879,11.2856658 11.4066746,11.3238791 C11.3705842,11.3599694 11.3344939,11.3960598 11.2962806,11.4300272 C11.2792969,11.4448879 11.2623132,11.4618716 11.2432065,11.4767323 C11.2347147,11.4852242 11.1434273,11.5552819 11.1986243,11.5128227 C11.1158288,11.5743886 11.0309103,11.6295856 10.9417459,11.6805367 C10.8929178,11.7081352 10.8419667,11.7336107 10.7910156,11.7569633 C10.7931386,11.7569633 10.7082201,11.7930537 10.7506793,11.773947 C10.7825238,11.7612092 10.6933594,11.7951766 10.6827446,11.7994226 C10.5850883,11.8355129 10.4831861,11.8631114 10.381284,11.884341 C10.3536855,11.8907099 10.323964,11.8949558 10.2963655,11.9013247 C10.2878736,11.9034477 10.1923404,11.9140625 10.266644,11.9055707 C10.2072011,11.9119395 10.1498811,11.9161855 10.0904382,11.9183084 C9.97155231,11.9225543 9.85266644,11.9183084 9.73590353,11.9055707 C9.80383832,11.9119395 9.66796875,11.8928329 9.64886209,11.8907099 C9.58305027,11.8779721 9.51723845,11.8609885 9.45354959,11.8440048 C9.40896739,11.831267 9.36226223,11.8164062 9.31768003,11.7994226 C9.29008152,11.7888077 9.26460598,11.7803159 9.23913043,11.7697011 C9.30494226,11.7951766 9.22002378,11.7612092 9.21153193,11.7569633 C9.10962976,11.7102582 9.01197351,11.6550611 8.91856318,11.5934952 C8.88034986,11.5680197 8.84213655,11.5404212 8.80392323,11.5128227 C8.86124321,11.5552819 8.78693954,11.497962 8.78057065,11.493716 C8.75934103,11.4767323 8.73811141,11.4576257 8.71688179,11.438519 C8.63408628,11.3642154 8.55765965,11.2835428 8.48547894,11.1986243 C8.48123302,11.1922554 8.42391304,11.1200747 8.46637228,11.1752717 C8.44938859,11.1540421 8.43240489,11.1306895 8.41754416,11.107337 C8.38994565,11.0691236 8.36659307,11.0309103 8.34111753,10.990574 C8.31139606,10.9417459 8.28379755,10.8929178 8.25832201,10.8440897 C8.2477072,10.8228601 8.23709239,10.8016304 8.22647758,10.7804008 C8.2201087,10.767663 8.18189538,10.6763757 8.20737092,10.7400645 C8.16915761,10.6424083 8.13519022,10.544752 8.10971467,10.4428499 C8.09485394,10.3876529 8.08423913,10.3303329 8.07362432,10.2730129 C8.07150136,10.2645211 8.06088655,10.1689878 8.0693784,10.2432914 C8.06513247,10.21357 8.06300951,10.1859715 8.06088655,10.15625 C8.0523947,10.043733 8.0523947,9.92909307 8.06088655,9.81445312 C8.06300951,9.78897758 8.06513247,9.765625 8.06725543,9.74227242 C8.07362432,9.64673913 8.05451766,9.80383832 8.07150136,9.71042799 C8.08211617,9.64461617 8.09485394,9.57880435 8.11183764,9.51299253 C8.13731318,9.41109035 8.16915761,9.3134341 8.20949389,9.21577785 C8.1861413,9.27309783 8.20949389,9.21577785 8.21586277,9.20091712 C8.22647758,9.1796875 8.23496943,9.15845788 8.24558424,9.13722826 C8.27530571,9.07778533 8.30502717,9.02046535 8.33899457,8.96526834 C8.36234715,8.92493207 8.38782269,8.88671875 8.4154212,8.84850543 C8.43028193,8.82515285 8.44726562,8.80392323 8.46424932,8.78057065 C8.42179008,8.83789062 8.47911005,8.76358696 8.48335598,8.75721807 C8.55341372,8.67229959 8.63196332,8.59162704 8.71475883,8.51732337 C8.73598845,8.49821671 8.75721807,8.48123302 8.77844769,8.46212636 C8.78481658,8.45788043 8.85699728,8.40056046 8.80180027,8.4430197 C8.84001359,8.4154212 8.87610394,8.38782269 8.91644022,8.36234715 C9.00985054,8.30078125 9.10750679,8.24558424 9.20940897,8.19887908 C9.21790082,8.19463315 9.30281929,8.16066576 9.23700747,8.1861413 C9.26248302,8.17552649 9.29008152,8.16491168 9.31555707,8.15641984 C9.36013927,8.13943614 9.40472147,8.12669837 9.45142663,8.11183764 C9.50662364,8.09485394 9.56182065,8.08211617 9.61914062,8.0693784 C9.64673913,8.06300951 9.6764606,8.05876359 9.7040591,8.0523947 C9.71042799,8.05027174 9.80596128,8.03965693 9.73378057,8.04814878 C9.84629755,8.03541101 9.9609375,8.03116508 10.0734545,8.03328804 C10.1286515,8.03541101 10.1817255,8.03965693 10.2347996,8.04390285 C10.3303329,8.05027174 10.1732337,8.03116508 10.266644,8.04814878 C10.3048573,8.05451766 10.3430707,8.06088655 10.381284,8.0693784 C10.5022928,8.09485394 10.6190557,8.13306726 10.7358186,8.17552649 C10.7464334,8.17977242 10.7931386,8.19887908 10.7379416,8.17552649 C10.771909,8.19038723 10.8058764,8.20524796 10.8398437,8.22223166 C10.8992867,8.25195312 10.9566067,8.28167459 11.0118037,8.31564198 C11.0585088,8.34536345 11.105214,8.37508492 11.1519192,8.40692935 C11.158288,8.41117527 11.2325917,8.46849524 11.1773947,8.42391304 C11.2071162,8.44726562 11.2347147,8.47061821 11.2623132,8.49397079 C11.3536005,8.57252038 11.4363961,8.65956182 11.5149457,8.75297215 C11.5276834,8.76783288 11.5382982,8.78057065 11.548913,8.79543139 C11.5064538,8.74023437 11.5743886,8.8336447 11.5828804,8.84213655 C11.6168478,8.89096467 11.6508152,8.94191576 11.6805367,8.99498981 C11.7102582,9.04806386 11.7399796,9.10113791 11.7654552,9.15633492 C11.7781929,9.18181046 11.7888077,9.20728601 11.8015455,9.23276155 C11.773947,9.16907269 11.8121603,9.26248302 11.8164062,9.27522079 C11.8588655,9.3919837 11.8928329,9.51086957 11.9161855,9.6318784 C11.9204314,9.65523098 11.9246773,9.67858356 11.9289232,9.7040591 C11.9352921,9.74227242 11.9352921,9.74227242 11.9289232,9.70618207 C11.9310462,9.72528872 11.9331692,9.74439538 11.9352921,9.76350204 C11.939538,9.83992867 11.941661,9.90998641 11.941661,9.98004416 C11.943784,10.1456352 12.0881454,10.3069803 12.2601053,10.2984885 C12.4320652,10.2899966 12.5806726,10.158373 12.5785721,9.98004416 C12.5721807,8.89733356 11.8907099,7.93563179 10.88018,7.5556216 C9.88875679,7.18410326 8.6998981,7.50254755 8.02904212,8.31988791 C7.33907948,9.15845788 7.22443954,10.3600543 7.78702446,11.3005265 C8.34960938,12.2388757 9.45567255,12.7144192 10.5235224,12.5042459 C11.5404212,12.3046875 12.3811141,11.440642 12.5403363,10.4173743 C12.5636889,10.2730129 12.5785721,10.1265285 12.5785721,9.98004416 C12.5806726,9.81445313 12.4320652,9.65310802 12.2601053,9.66159986 C12.0881454,9.66796875 11.943784,9.79959239 11.941661,9.98004416 Z" id="Path"></path>
                    <g id="Group" transform="translate(9.659477, 0.000000)">
                        <path d="M0,0.326936141 C0,0.808848505 0,1.29288383 0,1.7747962 C0,2.54543139 0,3.31606658 0,4.08670177 C0,4.26503057 0,4.44335938 0,4.61956522 C0,4.78515625 0.280761719,4.94650136 0.610351562,4.93800951 C0.939941406,4.92951766 1.22070312,4.79789402 1.22070312,4.61956522 C1.22070312,4.13765285 1.22070312,3.65361753 1.22070312,3.17170516 C1.22070312,2.40106997 1.22070312,1.63043478 1.22070312,0.859799592 C1.22070312,0.681470788 1.22070312,0.503141984 1.22070312,0.326936141 C1.22070312,0.161345109 0.939941406,6.01949046e-16 0.610351562,0.00849184783 C0.280761719,0.0169836957 0,0.148607337 0,0.326936141 L0,0.326936141 Z" id="Path"></path>
                        <path d="M0,15.3341542 C0,15.8160666 0,16.3001019 0,16.7820143 C0,17.5526495 0,18.3232846 0,19.0939198 C0,19.2722486 0,19.4505774 0,19.6267833 C0,19.7923743 0.280761719,19.9537194 0.610351562,19.9452276 C0.939941406,19.9367357 1.22070312,19.8051121 1.22070312,19.6267833 C1.22070312,19.1448709 1.22070312,18.6608356 1.22070312,18.1789232 C1.22070312,17.408288 1.22070312,16.6376529 1.22070312,15.8670177 C1.22070312,15.6886889 1.22070312,15.5103601 1.22070312,15.3341542 C1.22070312,15.1685632 0.939941406,15.0072181 0.610351562,15.0157099 C0.280761719,15.0242018 0,15.1558254 0,15.3341542 L0,15.3341542 Z" id="Path"></path>
                    </g>
                    <g id="Group" transform="translate(0.000000, 9.532099)" stroke="#005c1f" stroke-width="0.3">
                        <path d="M19.6289062,0.29296875 C19.1469939,0.285644531 18.6629586,0.278320312 18.1810462,0.270996094 C17.410411,0.258789063 16.6397758,0.246582031 15.8691406,0.236816406 C15.6908118,0.234375 15.512483,0.231933594 15.3362772,0.229492188 C15.1706861,0.227050781 15.009341,0.400390625 15.0178329,0.595703125 C15.0263247,0.795898438 15.1579484,0.959472656 15.3362772,0.961914063 C15.8181895,0.969238281 16.3022249,0.9765625 16.7841372,0.983886719 C17.5547724,0.99609375 18.3254076,1.00830078 19.0960428,1.01806641 C19.2743716,1.02050781 19.4527004,1.02294922 19.6289062,1.02539062 C19.7944973,1.02783203 19.9558424,0.854492187 19.9473505,0.659179687 C19.9388587,0.456542969 19.8072351,0.295410156 19.6289062,0.29296875 L19.6289062,0.29296875 Z" id="Path"></path>
                        <path d="M4.62168818,0.0659179687 C4.13977582,0.05859375 3.65574049,0.0512695312 3.17382812,0.0439453125 C2.40319293,0.0317382813 1.63255774,0.01953125 0.861922554,0.009765625 C0.68359375,0.00732421875 0.505264946,0.0048828125 0.329059103,0.00244140625 C0.163468071,-4.33680869e-19 0.00212296196,0.173339844 0.0106148098,0.368652344 C0.0191066576,0.568847656 0.150730299,0.732421875 0.329059103,0.734863281 C0.810971467,0.7421875 1.29500679,0.749511719 1.77691916,0.756835937 C2.54755435,0.769042969 3.31818954,0.78125 4.08882473,0.791015625 C4.26715353,0.793457031 4.44548234,0.795898437 4.62168818,0.798339844 C4.78727921,0.80078125 4.94862432,0.627441406 4.94013247,0.432128906 C4.93164063,0.231933594 4.80001698,0.068359375 4.62168818,0.0659179687 L4.62168818,0.0659179687 Z" id="Path"></path>
                    </g>
                </g>
            </g>
        </g>
    </g>
</svg>
